<?xml version="1.0" encoding="UTF-8"?>
<svg width="20px" height="20px" viewBox="0 0 20 20" version="1.1" xmlns="http://www.w3.org/2000/svg" xmlns:xlink="http://www.w3.org/1999/xlink">
    <title>切片</title>
    <defs>
        <filter id="filter-1">
            <feColorMatrix in="SourceGraphic" type="matrix" values="0 0 0 0 0.266667 0 0 0 0 0.266667 0 0 0 0 0.266667 0 0 0 1.000000 0"></feColorMatrix>
        </filter>
    </defs>
    <g id="页面-1" stroke="none" stroke-width="1" fill="none" fill-rule="evenodd">
        <g id="钱包详情" transform="translate(-1394.000000, -563.000000)">
            <g id="编组-8" transform="translate(1147.000000, 563.000000)">
                <g id="编组-8" transform="translate(247.000000, 0.000000)">
                    <g filter="url(#filter-1)" id="copy">
                        <g transform="translate(2.000000, 2.000000)">
                            <path d="M10.5058594,10.5058594 L10.5058594,13.5058594 C10.5058594,14.3698594 9.86985939,15.0058594 9.00585937,15.0058594 L1.50585937,15.0058594 C0.641859381,15.0058594 0.00585936914,14.3698594 0.00585936914,13.5058594 L0.00585936914,6.00585937 C0.00585936914,5.14185938 0.641859363,4.50585937 1.50585937,4.50585937 L4.50585937,4.50585937 L4.50585937,1.50585937 C4.50585937,0.641859381 5.14185936,0.00585936914 6.00585937,0.00585936914 L13.5058594,0.00585936914 C14.3698594,0.00585936914 15.0058594,0.641859363 15.0058594,1.50585937 L15.0058594,9.00585937 C15.0058594,9.86985937 14.3698594,10.5058594 13.5058594,10.5058594 L10.5058594,10.5058594 L10.5058594,10.5058594 Z M9.00585938,10.5058594 L6.00585938,10.5058594 C5.14185938,10.5058594 4.50585938,9.86985939 4.50585938,9.00585938 L4.50585938,6.00585938 L1.50585938,6.00585938 L1.50585938,13.5058594 L9.00585938,13.5058594 L9.00585938,10.5058594 L9.00585938,10.5058594 Z M6.00585938,1.50585938 L6.00585938,9.00585938 L13.5058594,9.00585938 L13.5058594,1.50585938 L6.00585938,1.50585938 Z" id="形状" fill="#444444" fill-rule="nonzero"></path>
                        </g>
                    </g>
                    <rect id="矩形" x="0" y="0" width="20" height="20"></rect>
                </g>
            </g>
        </g>
    </g>
</svg>
