<?xml version="1.0" encoding="UTF-8"?>
<svg width="20px" height="20px" viewBox="0 0 20 20" version="1.1" xmlns="http://www.w3.org/2000/svg" xmlns:xlink="http://www.w3.org/1999/xlink">
    <title>切片</title>
    <g id="页面-1" stroke="none" stroke-width="1" fill="none" fill-rule="evenodd">
        <g id="钱包详情" transform="translate(-1257.000000, -563.000000)">
            <g id="编组-8" transform="translate(1147.000000, 563.000000)">
                <g id="编组-8" transform="translate(110.000000, 0.000000)">
                    <polygon id="路径" points="0 0 20 0 20 20 0 20"></polygon>
                    <path d="M8.33333333,2.5 L8.33333333,4.16666667 L4.16666667,4.16666667 L4.16666667,15.8333333 L15.8333333,15.8333333 L15.8333333,11.6666667 L17.5,11.6666667 L17.5,16.6666667 C17.5,17.126904 17.126904,17.5 16.6666667,17.5 L3.33333333,17.5 C2.87309604,17.5 2.5,17.126904 2.5,16.6666667 L2.5,3.33333333 C2.5,2.87309604 2.87309604,2.5 3.33333333,2.5 L8.33333333,2.5 Z" id="形状" fill="#444444" fill-rule="nonzero"></path>
                    <polygon id="路径" fill="#C19CA7" points="14.655 4.16666667 10.8333333 4.16666667 10.8333333 2.5 17.5 2.5 17.5 9.16666667 15.8333333 9.16666667 15.8333333 5.345 10 11.1783333 8.82166667 10"></polygon>
                </g>
            </g>
        </g>
    </g>
</svg>